<svg width="182" height="135" viewBox="0 0 182 135" fill="none" xmlns="http://www.w3.org/2000/svg">
<path fill-rule="evenodd" clip-rule="evenodd" d="M5.54517 60.4819C3.84175 59.9401 2.05076 59.3705 0.119999 58.78L0.00999857 83.33C-0.150001 86.88 1.62 88.47 5.47 89.81C32.2 99.08 58.54 98.39 84.36 87.82C88.8 86.01 92.01 85.82 96.61 87.74C122.56 98.54 149.08 99.03 175.94 89.69C179.58 88.42 181.44 86.85 181.13 83.44C180.843 80.3924 180.909 77.3302 180.974 74.2669C181.002 72.9478 181.03 71.6284 181.03 70.31V58.72C180.186 58.974 179.453 59.1888 178.798 59.3809C177.467 59.7713 176.455 60.0682 175.47 60.41C161.36 65.34 147.39 67.46 133.56 66.81C128.09 64.9 123.44 61.61 120.09 56.63C115.41 49.69 113.45 42.19 116.91 34.08C119.69 27.55 126.01 25.28 132.33 28.51C133.826 29.2843 135.186 30.3461 136.535 31.3993C136.737 31.5567 136.938 31.714 137.14 31.87C139.72 33.86 142.5 34 144.97 32.16C147.36 30.38 148.14 27.46 146.96 24.56C146.61 23.69 146.2 22.83 145.76 22C138.88 9.35001 128.02 2.57001 113.96 0.620007C94.74 -2.03999 78.6 3.88001 65.42 18.07C61.1778 22.6397 58.2795 28.0304 55.3784 33.4264C54.5593 34.95 53.7399 36.474 52.89 37.98C46.23 49.82 38.1 59.91 26.33 65.65C22.64 65.08 18.93 64.32 15.2 63.36C12.0525 62.5514 8.97649 61.5731 5.54517 60.4819ZM5.5451 98.4318C3.84169 97.8901 2.05073 97.3205 0.119999 96.73L0.00999857 121.28C-0.150001 124.83 1.62 126.42 5.47 127.76C32.2 137.03 58.54 136.34 84.36 125.77C88.8 123.96 92.01 123.77 96.61 125.69C122.56 136.49 149.08 136.98 175.94 127.64C179.58 126.37 181.44 124.8 181.13 121.39C180.843 118.342 180.909 115.28 180.974 112.217C181.002 110.898 181.03 109.578 181.03 108.26V96.67C180.186 96.9239 179.453 97.1387 178.798 97.3309C177.467 97.7213 176.455 98.0182 175.47 98.36C148.2 107.89 121.41 106.94 95.25 95.77C91.7 94.25 89.13 94.36 85.65 95.85C63.17 105.49 39.65 107.59 15.2 101.31C12.0525 100.501 8.97645 99.5231 5.5451 98.4318Z" fill="#315475"/>
</svg>
